<svg width="100" height="100" viewBox="0 0 100 100" fill="none" xmlns="http://www.w3.org/2000/svg">
<path d="M24.0117 70.8333H83.3333V20.8333H16.6666V76.6046L24.0117 70.8333ZM26.8939 79.1667L8.33325 93.75V16.6667C8.33325 14.3655 10.1988 12.5 12.4999 12.5H87.4999C89.8012 12.5 91.6666 14.3655 91.6666 16.6667V75C91.6666 77.3012 89.8012 79.1667 87.4999 79.1667H26.8939ZM45.8333 58.3333H54.1666V66.6667H45.8333V58.3333ZM35.697 36.7227C37.0265 30.0383 42.9249 25 49.9999 25C58.0541 25 64.5833 31.5292 64.5833 39.5833C64.5833 47.6375 58.0541 54.1667 49.9999 54.1667H45.8333V45.8333H49.9999C53.4516 45.8333 56.2499 43.035 56.2499 39.5833C56.2499 36.1315 53.4516 33.3333 49.9999 33.3333C46.9678 33.3333 44.4399 35.4926 43.8699 38.3574L35.697 36.7227Z" fill="#245C71"/>
</svg>
