<svg width="160" height="160" viewBox="0 0 160 160" fill="none" xmlns="http://www.w3.org/2000/svg">
<g opacity="0.05">
<path d="M93.2 67.6195L109.832 55.2056C111.137 54.2313 113 55.1582 113 56.782V88.3093C113 89.9331 111.137 90.86 109.832 89.8857L93.2 77.4718V90.2798C93.2 91.3681 92.3135 92.2503 91.22 92.2503H48.98C47.8865 92.2503 47 91.3681 47 90.2798V54.8115C47 53.7232 47.8865 52.841 48.98 52.841H91.22C92.3135 52.841 93.2 53.7232 93.2 54.8115V67.6195ZM36.6807 113.639C38.0761 112.548 39.7993 111.955 41.5739 111.955H128.84C131.027 111.955 132.8 110.19 132.8 108.014V37.0773C132.8 34.9008 131.027 33.1364 128.84 33.1364H31.16C28.9729 33.1364 27.2 34.9008 27.2 37.0773V116.998C27.2 118.643 29.1042 119.564 30.4033 118.548L36.6807 113.639ZM46.1393 125.091C44.3647 125.091 42.6415 125.684 41.2461 126.775L17.2033 145.575C15.9042 146.591 14 145.67 14 144.026V26.5682C14 22.9407 16.955 20 20.6 20H139.4C143.045 20 146 22.9407 146 26.5682V118.523C146 122.151 143.045 125.091 139.4 125.091H46.1393Z" fill="#1D2020"/>
</g>
</svg>
