<svg width="160" height="160" viewBox="0 0 160 160" fill="none" xmlns="http://www.w3.org/2000/svg">
<g opacity="0.05">
<path d="M105.6 41.6C105.6 55.7385 94.1385 67.2 80 67.2C65.8615 67.2 54.4 55.7385 54.4 41.6C54.4 27.4615 65.8615 16 80 16C94.1385 16 105.6 27.4615 105.6 41.6Z" fill="#1B4555"/>
<path d="M54.4 70.4C54.4 79.2366 47.2366 86.4 38.4 86.4C29.5634 86.4 22.4 79.2366 22.4 70.4C22.4 61.5634 29.5634 54.4 38.4 54.4C47.2366 54.4 54.4 61.5634 54.4 70.4Z" fill="#1B4555"/>
<path d="M137.6 70.4C137.6 79.2366 130.437 86.4 121.6 86.4C112.763 86.4 105.6 79.2366 105.6 70.4C105.6 61.5634 112.763 54.4 121.6 54.4C130.437 54.4 137.6 61.5634 137.6 70.4Z" fill="#1B4555"/>
<path d="M112 137.6C112 141.135 109.135 144 105.6 144C102.065 144 99.2 141.135 99.2 137.6V105.6C99.2 103.079 98.7024 100.579 97.7375 98.25C96.7726 95.9215 95.3573 93.8073 93.575 92.025C91.7927 90.2427 89.6785 88.8274 87.35 87.8625C85.0205 86.8976 82.5214 86.4 80 86.4C77.4786 86.4 74.9795 86.8976 72.65 87.8625C70.3215 88.8274 68.2073 90.2427 66.425 92.025C64.6427 93.8073 63.2274 95.9215 62.2625 98.25C61.2976 100.579 60.8 103.079 60.8 105.6V137.6C60.8 141.135 57.9346 144 54.4 144C50.8654 144 48 141.135 48 137.6V105.6C48 101.398 48.8297 97.2383 50.4375 93.3563C52.0457 89.4738 54.4035 85.9465 57.375 82.975C60.3465 80.0035 63.8738 77.6457 67.7563 76.0375C71.6383 74.4297 75.7981 73.6 80 73.6C84.2019 73.6 88.3617 74.4297 92.2438 76.0375C96.1262 77.6457 99.6535 80.0035 102.625 82.975C105.596 85.9465 107.954 89.4738 109.563 93.3563C111.17 97.2383 112 101.398 112 105.6V137.6Z" fill="#1B4555"/>
<path d="M16 137.6V118.4C16 114.384 16.9605 108.36 20.1125 103.106C23.4651 97.5192 29.3822 92.8 38.4 92.8C41.9346 92.8 44.8 95.6654 44.8 99.2C44.8 102.735 41.9346 105.6 38.4 105.6C34.6183 105.6 32.535 107.281 31.0875 109.694C29.4399 112.44 28.8 116.016 28.8 118.4V137.6C28.8 141.135 25.9346 144 22.4 144C18.8654 144 16 141.135 16 137.6Z" fill="#1B4555"/>
<path d="M144 137.6V118.4C144 114.384 143.039 108.36 139.888 103.106C136.535 97.5192 130.618 92.8 121.6 92.8C118.065 92.8 115.2 95.6654 115.2 99.2C115.2 102.735 118.065 105.6 121.6 105.6C125.382 105.6 127.465 107.281 128.913 109.694C130.56 112.44 131.2 116.016 131.2 118.4V137.6C131.2 141.135 134.065 144 137.6 144C141.135 144 144 141.135 144 137.6Z" fill="#1B4555"/>
</g>
</svg>
