<svg width="160" height="160" viewBox="0 0 160 160" fill="none" xmlns="http://www.w3.org/2000/svg">
<g opacity="0.05">
<path d="M80 73.6C97.673 73.6 112 87.927 112 105.6V137.6C112 141.135 109.135 144 105.6 144L-nan -nanL105.6 144C102.065 144 99.2 141.135 99.2 137.6V105.6C99.2 95.3747 91.207 87.0163 81.1283 86.4326L80 86.4C69.7747 86.4 61.4166 94.393 60.8326 104.472L60.8 105.6V137.6C60.8 141.135 57.9346 144 54.4 144L-nan -nanL54.4 144C50.8654 144 48 141.135 48 137.6V105.6C48 87.927 62.3269 73.6 80 73.6ZM38.4 92.8C40.1846 92.8 41.9206 93.0086 43.5846 93.4029C42.5089 96.6016 41.8479 99.9808 41.6573 103.484L41.6 105.6L41.6045 106.148C40.8804 105.892 40.1165 105.72 39.3245 105.644L38.4 105.6C33.4099 105.6 29.3091 109.407 28.844 114.275L28.8 115.2V137.6C28.8 141.135 25.9346 144 22.4 144L-nan -nanL22.4 144C18.8654 144 16 141.135 16 137.6V115.2C16 102.829 26.0288 92.8 38.4 92.8ZM121.6 92.8C133.971 92.8 144 102.829 144 115.2V137.6C144 141.135 141.135 144 137.6 144L-nan -nanL137.6 144C134.065 144 131.2 141.135 131.2 137.6V115.2C131.2 110.21 127.393 106.109 122.525 105.644L121.6 105.6C120.479 105.6 119.402 105.792 118.402 106.145L118.4 105.6C118.4 101.34 117.706 97.2416 116.426 93.4118C118.079 93.0086 119.815 92.8 121.6 92.8ZM38.4 54.4C47.2365 54.4 54.4 61.5635 54.4 70.4C54.4 79.2365 47.2365 86.4 38.4 86.4C29.5635 86.4 22.4 79.2365 22.4 70.4C22.4 61.5635 29.5635 54.4 38.4 54.4ZM121.6 54.4C130.436 54.4 137.6 61.5635 137.6 70.4C137.6 79.2365 130.436 86.4 121.6 86.4C112.764 86.4 105.6 79.2365 105.6 70.4C105.6 61.5635 112.764 54.4 121.6 54.4ZM80 16C94.1382 16 105.6 27.4615 105.6 41.6C105.6 55.7385 94.1382 67.2 80 67.2C65.8615 67.2 54.4 55.7385 54.4 41.6C54.4 27.4615 65.8615 16 80 16ZM80 28.8C72.9306 28.8 67.2 34.5308 67.2 41.6C67.2 48.6692 72.9306 54.4 80 54.4C87.0694 54.4 92.8 48.6692 92.8 41.6C92.8 34.5308 87.0694 28.8 80 28.8Z" fill="#1B4555"/>
</g>
</svg>
