<svg width="160" height="160" viewBox="0 0 160 160" fill="none" xmlns="http://www.w3.org/2000/svg">
<g opacity="0.05">
<path d="M142.993 46.0808C145.669 48.7569 145.669 53.0958 142.993 55.7719C140.317 58.4481 135.978 58.4481 133.302 55.7719L123.611 46.0807L109.073 60.6176L128.456 79.9999C131.132 82.676 131.132 87.0149 128.456 89.691C125.78 92.3671 121.441 92.3671 118.765 89.691L75.7565 132.7C75.371 133.085 74.8481 133.302 74.3028 133.302H36.3895L26.6982 142.993C24.0221 145.669 19.6833 145.669 17.0071 142.993C14.331 140.317 14.331 135.978 17.0071 133.302L26.6983 123.611V85.697C26.6983 85.1517 26.9149 84.6288 27.3004 84.2433L70.3088 41.2352C67.6326 38.559 67.6326 34.2201 70.3088 31.5439C72.9849 28.8678 77.3238 28.8678 79.9999 31.5439L99.3822 50.9264L113.919 36.3895L104.228 26.6983C101.552 24.0221 101.552 19.6833 104.228 17.0071C106.904 14.331 111.243 14.331 113.919 17.0071L142.993 46.0808ZM109.073 79.9999L79.9999 50.9264L70.3088 60.6176L79.9999 70.3087C82.6761 72.9849 82.6761 77.3237 79.9999 79.9999C77.3238 82.676 72.9849 82.676 70.3088 79.9999L60.6175 70.3087L50.9263 79.9999L60.6175 89.691C63.2937 92.3672 63.2938 96.706 60.6177 99.3823C57.9415 102.059 53.6023 102.059 50.9261 99.3823L41.2351 89.691L40.4037 90.5229V119.596H69.4776L109.073 79.9999Z" fill="#1B4555"/>
</g>
</svg>
