<svg width="160" height="160" viewBox="0 0 160 160" fill="none" xmlns="http://www.w3.org/2000/svg">
<g opacity="0.05">
<path fill-rule="evenodd" clip-rule="evenodd" d="M80 14C116.451 14 146 43.5492 146 80C146 116.451 116.451 146 80 146C43.5492 146 14 116.451 14 80C14 43.5492 43.5492 14 80 14ZM80 26.3777C50.3853 26.3777 26.3777 50.3853 26.3777 80C26.3777 109.615 50.3853 133.622 80 133.622C109.615 133.622 133.622 109.615 133.622 80C133.622 50.3853 109.615 26.3777 80 26.3777Z" fill="#1B4555"/>
<path d="M89.2024 46.9505C89.2024 51.9418 85.1562 55.988 80.1649 55.988C75.1736 55.988 71.1274 51.9418 71.1274 46.9505C71.1274 41.9593 75.1736 37.913 80.1649 37.913C85.1562 37.913 89.2024 41.9593 89.2024 46.9505Z" fill="#1B4555"/>
<path d="M91.956 106.584C94.8397 104.452 98.9201 104.934 101.221 107.737C103.595 110.631 103.174 114.901 100.281 117.276C94.5121 121.899 86.9841 125.007 79.5052 123.469C75.9955 122.747 72.6622 120.969 70.2228 117.962C67.7742 114.943 66.6087 111.159 66.6087 107.095C66.6087 99.1669 67.8023 89.0908 68.9387 81.2274C69.5139 77.2466 70.0873 73.7403 70.5185 71.2279C70.8419 69.3436 71.0873 68.0117 71.1914 67.4505C71.9078 63.59 74.1624 60.8077 79.1676 61.7557C82.8452 62.4528 85.2611 65.999 84.5645 69.6768C84.3094 70.9522 84.1005 72.2387 83.8805 73.5204C83.4645 75.9445 82.9081 79.3305 82.3537 83.1668C81.2307 90.9377 80.1649 100.201 80.1649 107.095C80.1649 108.659 80.6215 109.859 82.2367 110.191C85.7777 110.918 89.316 108.632 91.956 106.584Z" fill="#1B4555"/>
</g>
</svg>
